<?xml version="1.0" encoding="UTF-8"?>
<!-- Generator: Adobe Illustrator 18.1.1, SVG Export Plug-In . SVG Version: 6.00 Build 0)  -->
<svg version="1.1" id="Слой_1" xmlns="http://www.w3.org/2000/svg" xmlns:xlink="http://www.w3.org/1999/xlink" x="0px" y="0px" viewBox="0 0 125.28 70.35" style="enable-background:new 0 0 125.28 70.35;" xml:space="preserve">
<style type="text/css">
	.st0{fill:#FFFFFF;}
	.st1{fill:#5C6064;}
</style>
<rect x="17.29" y="1.79" class="st0" width="91.26" height="11.75"/>
<rect x="0" y="15.04" class="st0" width="125.28" height="55.31"/>
<path class="st1" d="M26.62,9.2c0.18-0.73,0.19-1.83,0-2.56H24.2V9.2H26.62z M34.42,9.89c0.39-0.95,0.36-2.32-0.01-3.25h-2.83  c-0.38,0.95-0.39,2.32-0.01,3.25H34.42z M76.14,9.89c0.22-0.73,0.17-1.81,0.01-2.54h-2.41v2.54H76.14z M89.17,9.18h3.17V6.64h-2.53  L89.17,9.18z M120.22,29.41h-11.78v-8.42h11.78V29.41z M108.44,31.37h11.78v8.43h-11.78V31.37z M103.24,59.15H91.47V42.3h11.78  V59.15z M103.24,39.79H91.47v-8.43h11.78V39.79z M103.24,29.41H91.47v-8.42h11.78V29.41z M103.24,10.61h-8.33V5.93h1.88v3.96h1.34  V5.93h1.89v3.96h1.33V5.93h1.89V10.61z M94.24,10.61h-1.89V9.89h-3.36l-0.18,0.71h-1.9l1.22-4.68h6.11V10.61z M86.24,10.61h-1.89  V6.92l-1.79,1.61l-1.79-1.61l-0.01,3.69h-1.88V5.93h1.89l1.79,1.63l1.79-1.63h1.89V10.61z M77.79,10.61h-5.95V5.93h1.89v0.71h4.07  C78.37,7.85,78.33,9.42,77.79,10.61 M70.95,10.61h-1.89V6.64h-2.32l-1.16,3.97H63.7l1.36-4.68h5.89V10.61z M63.55,20.99h11.78v8.42  H63.55V20.99z M63.02,10.61h-5.86V5.93h5.86v0.71h-3.97v1h3.21l0,0.71h-3.21l0,1.54h3.98V10.61z M56.27,6.64h-3.72  c-0.39,0.98-0.37,2.26,0,3.25h3.72v0.71h-5.2c-0.95-1.23-0.86-3.56-0.02-4.68h5.23V6.64z M49.81,20.99h11.78v8.42H49.81V20.99z   M49.8,6.64h-1.89v3.97h-1.89V6.64h-1.89V5.93h5.67V6.64z M43.24,6.64h-3.72c-0.39,0.98-0.37,2.26,0,3.25h3.72v0.71h-5.2  c-0.95-1.23-0.86-3.56-0.02-4.68h5.23V6.64z M35.9,10.61h-5.8c-1.01-1.32-0.84-3.66-0.01-4.68h5.8C36.61,6.76,37,9.13,35.9,10.61   M28.25,9.89H24.2v0.71h-1.88V5.93h5.93C28.75,7.11,28.79,8.69,28.25,9.89 M17.29,59.15H5.51V42.3h11.78V59.15z M17.29,39.79H5.51  v-8.43h11.78V39.79z M17.29,29.41H5.51v-8.42h11.78V29.41z M22.31,20.99h11.78v8.42H22.31V20.99z M22.31,31.37h11.78v8.43H22.31  V31.37z M22.31,42.3h11.78v16.85H22.31V42.3z M36.06,20.99h11.78v8.42H36.06V20.99z M36.06,31.37h11.78v8.43H36.06V31.37z   M36.06,42.3h11.78v16.85H36.06V42.3z M49.81,31.37h13.75h2.56h9.22V42.3v6.29V63.8h-9.22h-2.56H49.81V44.74V42.3V31.37z   M77.51,20.99h11.78v8.42H77.51V20.99z M77.51,31.37h11.78v8.43H77.51V31.37z M77.51,42.3h11.78v16.85H77.51V42.3z M108.44,42.3  h11.78v16.85h-11.78V42.3z M125.28,70.35V10.51h-16.73V0H17.29v10.51H0v59.84H125.28z"/>
</svg>