<?xml version="1.0" encoding="UTF-8"?>
<!-- Generator: Adobe Illustrator 18.1.1, SVG Export Plug-In . SVG Version: 6.00 Build 0)  -->
<svg version="1.1" id="Слой_1" xmlns="http://www.w3.org/2000/svg" xmlns:xlink="http://www.w3.org/1999/xlink" x="0px" y="0px" viewBox="0 0 83.1 83.1" style="enable-background:new 0 0 83.1 83.1;" xml:space="preserve">
<style type="text/css">
	.st0{fill:#3C4246;}
</style>
<path class="st0" d="M53.41,54.23c-7,6.55-18.11,6.14-24.61-0.9c-6.46-6.99-6.1-17.92,0.89-24.46c7-6.55,18.11-6.14,24.61,0.9  C60.77,36.76,60.4,47.69,53.41,54.23 M81.98,48.36l-4.24-2.66c-0.65-0.41-1.02-1.14-0.97-1.91c0.08-1.31,0.09-2.62,0.03-3.92  c-0.04-0.77,0.35-1.51,1.02-1.9l4.26-2.53c0.8-0.47,1.19-1.42,0.95-2.32l-1.13-4.33c-0.23-0.89-1.02-1.52-1.94-1.56l-4.99-0.18  c-0.77-0.03-1.45-0.48-1.79-1.17c-0.58-1.17-1.23-2.31-1.94-3.42c-0.42-0.65-0.45-1.48-0.07-2.16l2.42-4.31  c0.45-0.81,0.32-1.82-0.33-2.48l-3.14-3.19c-0.65-0.66-1.65-0.81-2.46-0.38l-4.41,2.34c-0.68,0.36-1.5,0.31-2.14-0.11  c-1.1-0.73-2.23-1.4-3.39-1.99c-0.69-0.36-1.13-1.06-1.14-1.83L56.52,3.4c-0.01-0.93-0.63-1.74-1.53-1.98l-4.32-1.19  c-0.89-0.24-1.83,0.12-2.32,0.9L45.7,5.36c-0.41,0.65-1.14,1.02-1.91,0.97c-1.31-0.08-2.62-0.09-3.92-0.03  c-0.77,0.04-1.51-0.35-1.9-1.02l-2.53-4.26c-0.47-0.8-1.42-1.19-2.32-0.95l-4.33,1.13c-0.89,0.23-1.53,1.02-1.56,1.94l-0.18,4.98  c-0.03,0.77-0.48,1.45-1.17,1.79c-1.17,0.58-2.31,1.23-3.42,1.94c-0.65,0.42-1.48,0.45-2.16,0.07l-4.31-2.42  c-0.81-0.46-1.82-0.32-2.48,0.33l-3.19,3.14c-0.66,0.65-0.81,1.65-0.38,2.46l2.34,4.41c0.36,0.68,0.31,1.5-0.12,2.14  c-0.73,1.1-1.4,2.23-1.99,3.39c-0.35,0.69-1.06,1.13-1.83,1.14L3.4,26.58c-0.93,0.01-1.74,0.64-1.98,1.53l-1.19,4.32  c-0.24,0.89,0.12,1.83,0.9,2.32l4.23,2.66c0.65,0.41,1.02,1.14,0.97,1.91c-0.08,1.31-0.09,2.62-0.03,3.92  c0.04,0.77-0.35,1.51-1.02,1.9l-4.26,2.53c-0.8,0.47-1.19,1.42-0.95,2.32l1.13,4.33c0.23,0.89,1.02,1.52,1.94,1.56l4.98,0.18  c0.77,0.03,1.45,0.48,1.79,1.17c0.58,1.17,1.23,2.31,1.94,3.42c0.42,0.65,0.45,1.48,0.07,2.16l-2.42,4.31  c-0.45,0.81-0.32,1.82,0.33,2.48l3.14,3.19c0.65,0.66,1.65,0.81,2.46,0.38l4.41-2.34c0.68-0.36,1.5-0.31,2.14,0.11  c1.1,0.73,2.23,1.4,3.39,2c0.69,0.35,1.13,1.06,1.14,1.83l0.06,4.94c0.01,0.93,0.64,1.74,1.53,1.98l4.32,1.19  c0.89,0.24,1.83-0.12,2.32-0.9l2.66-4.23c0.41-0.65,1.14-1.02,1.91-0.97c1.31,0.08,2.62,0.09,3.92,0.03  c0.77-0.04,1.51,0.35,1.9,1.02l2.53,4.26c0.47,0.8,1.42,1.19,2.32,0.95l4.33-1.13c0.89-0.23,1.53-1.02,1.56-1.94l0.18-4.98  c0.03-0.77,0.48-1.45,1.17-1.79c1.17-0.58,2.31-1.23,3.42-1.94c0.65-0.42,1.48-0.45,2.16-0.07l4.31,2.42  c0.81,0.46,1.82,0.32,2.48-0.33l3.19-3.14c0.66-0.65,0.81-1.65,0.38-2.46l-2.34-4.41c-0.36-0.68-0.31-1.5,0.11-2.14  c0.73-1.1,1.4-2.23,1.99-3.39c0.36-0.69,1.06-1.13,1.83-1.14l4.94-0.06c0.93-0.01,1.74-0.63,1.98-1.53l1.19-4.32  C83.13,49.79,82.76,48.85,81.98,48.36"/>
</svg>