<svg width="192" height="30" viewBox="0 0 192 30" fill="none" xmlns="http://www.w3.org/2000/svg">
<path d="M85.6819 8.79456L89.6806 5.84375H76.2937V23.5197H89.6806V20.5689H80.1185V16.0559H88.2897V13.1051H80.1185V8.79456H85.6819Z" fill="#21A038"/>
<path d="M66.1811 12.729H61.5449V8.79456H68.9628L72.9614 5.84375H57.7201V23.5197H65.6885C70.1508 23.5197 72.7296 21.4946 72.7296 17.9652C72.7296 14.5805 70.4116 12.729 66.1811 12.729ZM65.5436 20.5689H61.5449V15.6798H65.5436C67.9776 15.6798 69.1076 16.4898 69.1076 18.1388C69.1076 19.7878 67.8907 20.5689 65.5436 20.5689Z" fill="#21A038"/>
<path d="M100.518 5.84375H93.2446V23.5197H97.0695V18.5149H100.547C105.183 18.5149 108.08 16.0848 108.08 12.1793C108.08 8.27383 105.183 5.84375 100.518 5.84375ZM100.431 15.5641H97.0405V8.79456H100.431C102.894 8.79456 104.227 10.0096 104.227 12.1793C104.227 14.349 102.894 15.5641 100.431 15.5641Z" fill="#21A038"/>
<path d="M51.1716 19.701C50.1574 20.2506 49.0274 20.5399 47.8683 20.5399C44.4202 20.5399 41.9282 18.0809 41.9282 14.6962C41.9282 11.3114 44.4202 8.85241 47.8683 8.85241C49.1143 8.82348 50.3313 9.2285 51.3454 9.95173L54.0981 7.92667L53.9243 7.75309C52.3306 6.33554 50.1864 5.6123 47.7524 5.6123C45.1156 5.6123 42.7106 6.50912 40.972 8.12917C39.2335 9.80709 38.2483 12.1504 38.3063 14.5805C38.2773 17.0395 39.2335 19.4117 40.972 21.1475C42.7975 22.8543 45.2315 23.809 47.7234 23.7511C50.4762 23.7511 52.8812 22.7964 54.5038 21.0607L52.0409 19.2381L51.1716 19.701Z" fill="#21A038"/>
<path d="M154.065 5.87268V23.5486H157.89V16.3162H166.032V23.5486H169.857V5.87268H166.032V13.134H157.89V5.87268H154.065ZM147.488 23.5486H151.515L144.04 5.87268H140.157L132.536 23.5486H136.39L137.926 19.9903H146.039L147.488 23.5486ZM139.085 17.0395L142.04 9.95174L144.822 17.0395H139.085ZM178.434 16.403H180.81L186.663 23.5197H191.589L183.766 14.378L190.604 5.84375H186.229L180.549 13.4233H178.434V5.84375H174.609V23.5197H178.434V16.403ZM119.903 12.7579V8.82349H129.899V5.87268H116.078V23.5486H124.046C128.508 23.5486 131.087 21.5236 131.087 17.9941C131.087 14.6094 128.769 12.7579 124.539 12.7579H119.903ZM119.903 20.5978V15.7087H123.901C126.335 15.7087 127.465 16.5187 127.465 18.1677C127.465 19.8167 126.277 20.6267 123.901 20.6267H119.903V20.5978Z" fill="#21A038"/>
<path d="M26.3392 5.72803C27.0346 6.62484 27.6141 7.60845 28.1067 8.64991L14.7198 18.5149L9.09851 14.9855V10.7618L14.6909 14.2622L26.3392 5.72803Z" fill="#21A038"/>
<path d="M3.39019 14.6963C3.39019 14.4938 3.39019 14.3202 3.41916 14.1177L0.028976 13.9441C0.028976 14.1755 0 14.4359 0 14.6673C0 18.7175 1.65163 22.3915 4.31742 25.053L6.72242 22.6519C4.66513 20.6268 3.39019 17.8206 3.39019 14.6963Z" fill="url(#paint0_linear)"/>
<path d="M14.6908 3.41381C14.8936 3.41381 15.0675 3.41381 15.2703 3.44274L15.4441 0.0579823C15.2123 0.0579823 14.9516 0.0290527 14.7198 0.0290527C10.6631 0.0290527 6.98317 1.67804 4.31738 4.33955L6.72239 6.7407C8.7507 4.68671 11.5903 3.41381 14.6908 3.41381Z" fill="url(#paint1_linear)"/>
<path d="M14.6908 25.9788C14.4879 25.9788 14.3141 25.9788 14.1112 25.9498L13.9374 29.3346C14.1692 29.3346 14.43 29.3635 14.6618 29.3635C18.7184 29.3635 22.3984 27.7145 25.0641 25.053L22.6591 22.6519C20.6308 24.7348 17.8202 25.9788 14.6908 25.9788Z" fill="url(#paint2_linear)"/>
<path d="M21.0655 5.38089L23.9341 3.26904C21.4132 1.24397 18.1969 0 14.6908 0V3.38475C17.0668 3.41368 19.269 4.13692 21.0655 5.38089Z" fill="url(#paint3_linear)"/>
<path d="M29.4107 14.6962C29.4107 13.7994 29.3238 12.9315 29.1789 12.0636L26.0205 14.4069C26.0205 14.4937 26.0205 14.6094 26.0205 14.6962C26.0205 18.0231 24.5717 21.0028 22.2826 23.0568L24.5717 25.5737C27.5272 22.9122 29.4107 19.0067 29.4107 14.6962Z" fill="#21A038"/>
<path d="M14.6909 25.9787C11.3586 25.9787 8.3741 24.5323 6.31681 22.2468L3.7959 24.5323C6.49066 27.512 10.3734 29.3635 14.6909 29.3635V25.9787Z" fill="url(#paint4_linear)"/>
<path d="M7.12808 6.33559L4.83898 3.81873C1.85446 6.50917 0 10.3857 0 14.6962H3.39019C3.39019 11.3983 4.83898 8.38959 7.12808 6.33559Z" fill="url(#paint5_linear)"/>
<defs>
<linearGradient id="paint0_linear" x1="3.96673" y1="24.6412" x2="0.506695" y2="14.6557" gradientUnits="userSpaceOnUse">
<stop offset="0.1444" stop-color="#F2E913"/>
<stop offset="0.3037" stop-color="#E7E518"/>
<stop offset="0.5823" stop-color="#CADB26"/>
<stop offset="0.891" stop-color="#A3CD39"/>
</linearGradient>
<linearGradient id="paint1_linear" x1="5.28376" y1="3.94712" x2="14.0758" y2="0.601986" gradientUnits="userSpaceOnUse">
<stop offset="0.0592" stop-color="#0FA8E0"/>
<stop offset="0.5385" stop-color="#0099F9"/>
<stop offset="0.9234" stop-color="#0291EB"/>
</linearGradient>
<linearGradient id="paint2_linear" x1="13.7383" y1="26.4762" x2="24.2171" y2="24.1117" gradientUnits="userSpaceOnUse">
<stop offset="0.1226" stop-color="#A3CD39"/>
<stop offset="0.2846" stop-color="#86C339"/>
<stop offset="0.8693" stop-color="#21A038"/>
</linearGradient>
<linearGradient id="paint3_linear" x1="13.9942" y1="2.16563" x2="22.7087" y2="4.85011" gradientUnits="userSpaceOnUse">
<stop offset="0.0566" stop-color="#0291EB"/>
<stop offset="0.79" stop-color="#0C8ACB"/>
</linearGradient>
<linearGradient id="paint4_linear" x1="4.6579" y1="25.082" x2="14.0155" y2="28.5727" gradientUnits="userSpaceOnUse">
<stop offset="0.1324" stop-color="#F2E913"/>
<stop offset="0.2977" stop-color="#EBE716"/>
<stop offset="0.5306" stop-color="#D9E01F"/>
<stop offset="0.8023" stop-color="#BBD62D"/>
<stop offset="0.9829" stop-color="#A3CD39"/>
</linearGradient>
<linearGradient id="paint5_linear" x1="2.57961" y1="15.1051" x2="6.32115" y2="5.38755" gradientUnits="userSpaceOnUse">
<stop offset="0.0698" stop-color="#A3CD39"/>
<stop offset="0.2599" stop-color="#81C55F"/>
<stop offset="0.9216" stop-color="#0FA8E0"/>
</linearGradient>
</defs>
</svg>
