<?xml version="1.0" encoding="UTF-8"?>
<!DOCTYPE svg PUBLIC "-//W3C//DTD SVG 1.1//EN" "http://www.w3.org/Graphics/SVG/1.1/DTD/svg11.dtd">
<!-- Creator: CorelDRAW -->
<svg xmlns="http://www.w3.org/2000/svg" xml:space="preserve" width="550mm" height="148mm" version="1.1" style="shape-rendering:geometricPrecision; text-rendering:geometricPrecision; image-rendering:optimizeQuality; fill-rule:evenodd; clip-rule:evenodd"
viewBox="0 0 55000 14800"
 xmlns:xlink="http://www.w3.org/1999/xlink"
 xmlns:xodm="http://www.corel.com/coreldraw/odm/2003">
 <defs>
  <style type="text/css">
   <![CDATA[
    .fil0 {fill:#E31E24}
   ]]>
  </style>
 </defs>
 <g id="Слой_x0020_1">
  <metadata id="CorelCorpID_0Corel-Layer"/>
  <path class="fil0" d="M27905.99 3614.26l-1703.57 113.57 1041.08 -1590.01 832.85 94.65 1665.71 -1097.86 1343.94 889.65 1930.71 -1665.72 681.43 643.57 -1779.28 1571.07 1817.14 1078.93 3217.86 -2252.5 18.93 -851.78 4448.21 4788.93 -3823.57 4353.58 -1892.86 -2120.01 -2839.28 -454.29 -2479.65 1722.51 -1343.93 -1116.79 397.5 -2441.79 -1533.22 -1665.71zm8934.3 2479.65l-2328.22 -2025.37 2612.14 -1892.86 1684.65 1873.93 -1968.57 2044.3zm2555.35 -1495.36l-2105.32 1983.33 799.25 931.67 1798.21 -2479.65 -492.14 -435.35zm-10985.57 2665.98c-362.03,355.3 -805.72,532.94 -1331.08,532.94 -525.37,0 -969.06,-177.64 -1331.09,-532.94 -362.03,-355.3 -543.05,-793.94 -543.05,-1315.93 0,-521.99 181.02,-960.64 543.05,-1315.93 362.03,-355.29 805.72,-532.94 1331.09,-532.94 525.36,0 969.05,177.65 1331.08,532.94 362.03,355.29 543.05,793.94 543.05,1315.93 0,521.99 -181.02,960.63 -543.05,1315.93zm-1760.81 -889.7c113.42,113.42 256.66,170.13 429.73,170.13 173.05,0 316.3,-56.71 429.73,-170.13 113.42,-113.43 170.13,-255.5 170.13,-426.23 0,-170.72 -56.71,-312.79 -170.13,-426.22 -113.43,-113.43 -256.68,-170.14 -429.73,-170.14 -173.07,0 -316.31,56.71 -429.73,170.14 -113.43,113.43 -170.15,255.5 -170.15,426.22 0,170.73 56.72,312.8 170.15,426.23zm9615.52 7235.86c-652,639.87 -1451.07,959.8 -2397.22,959.8 -946.15,0 -1745.22,-319.93 -2397.21,-959.8 -652,-639.87 -978,-1429.84 -978,-2369.93 0,-940.07 326,-1730.06 978,-2369.92 651.99,-639.87 1451.06,-959.79 2397.21,-959.79 946.15,0 1745.22,319.92 2397.22,959.79 652,639.86 978,1429.85 978,2369.92 0,940.09 -326,1730.06 -978,2369.93zm-3455.57 -1320.21c279.35,279.34 632.12,419.02 1058.35,419.02 426.22,0 779,-139.68 1058.35,-419.02 279.35,-279.35 419.02,-629.26 419.02,-1049.72 0,-420.46 -139.67,-770.36 -419.02,-1049.72 -279.35,-279.34 -632.13,-419.02 -1058.35,-419.02 -426.23,0 -779,139.68 -1058.35,419.02 -279.36,279.36 -419.03,629.26 -419.03,1049.72 0,420.46 139.67,770.37 419.03,1049.72zm-30300.66 -1629.91c454.66,0 812.65,126.41 1073.97,379.23 261.33,252.82 391.99,591.7 391.99,1016.62 0,429.16 -131.73,775.46 -395.17,1038.91 -263.45,263.45 -620.37,395.17 -1070.79,395.17l-1975.85 0 0 -4461.6 3059.39 0 0 1236.5 -1784.65 0 0 395.17 701.11 0zm-95.6 1682.66c84.98,0 154.03,-25.5 207.15,-76.48 53.11,-50.99 79.66,-121.11 79.66,-210.33 0,-89.24 -26.55,-159.35 -79.66,-210.34 -53.12,-50.99 -122.17,-76.48 -207.15,-76.48l-605.51 0 0 573.63 605.51 0zm4238.52 -3314.33l1338.49 0 -1287.5 3021.14c-212.45,497.15 -491.83,866.82 -838.14,1109.02 -346.31,242.21 -797.78,352.68 -1354.42,331.44l0 -1185.51c386.68,29.74 679.87,-44.62 879.58,-223.08l-1478.71 -3053.01 1338.49 0 771.22 1695.4 630.99 -1695.4zm3441.82 0c463.16,0 849.83,145.52 1160.01,436.6 310.19,291.06 465.29,678.79 465.29,1163.19 0,484.41 -155.1,872.15 -465.29,1163.21 -310.18,291.07 -696.85,436.6 -1160.01,436.6l-509.91 0 0 1262 -1274.74 0 0 -4461.6 1784.65 0zm0 1963.1c97.72,0 180.58,-32.93 248.57,-98.79 67.99,-65.86 101.98,-154.04 101.98,-264.52 0,-110.47 -33.99,-198.64 -101.98,-264.5 -67.99,-65.86 -150.85,-98.79 -248.57,-98.79l-509.91 0 0 726.6 509.91 0zm5385.8 -1969.48l0 4461.61 -1274.75 0 0 -1402.22 -159.34 0 -828.58 1402.22 -1402.23 0 987.93 -1606.18c-246.45,-123.23 -440.85,-296.38 -583.2,-519.46 -142.34,-223.08 -213.51,-479.09 -213.51,-768.03 0,-471.66 159.34,-850.9 478.03,-1137.72 318.68,-286.82 722.35,-430.22 1211,-430.22l1784.65 0zm-1759.15 1172.77c-135.98,0 -243.26,37.17 -321.88,111.54 -78.61,74.36 -117.91,177.4 -117.91,309.12 0,131.72 39.3,233.7 117.91,305.93 78.62,72.25 185.9,106.24 321.88,101.99l484.4 0 0 -828.58 -484.4 0zm5519.65 -1166.39l0 1236.5 -1051.67 0 0 3225.1 -1274.75 0 0 -3225.1 -1051.66 0 0 -1236.5 3378.08 0zm2645.09 4461.6l-152.97 -573.64 -1287.49 0 -152.97 573.64 -1370.35 0 1421.34 -4461.6 1491.45 0 1421.34 4461.6 -1370.35 0zm-1166.39 -1593.43l739.35 0 -369.67 -1370.36 -369.68 1370.36zm5532.39 -2868.17l0 1236.5 -1465.96 0 0 3225.1 -1274.74 0 0 -4461.6 2740.7 0zm2103.33 0c463.16,0 849.84,145.52 1160.02,436.6 310.19,291.06 465.29,678.79 465.29,1163.19 0,484.41 -155.1,872.15 -465.29,1163.21 -310.18,291.07 -696.86,436.6 -1160.02,436.6l-509.9 0 0 1262 -1274.74 0 0 -4461.6 1784.64 0zm0 1963.1c97.73,0 180.59,-32.93 248.58,-98.79 67.98,-65.86 101.98,-154.04 101.98,-264.52 0,-110.47 -34,-198.64 -101.98,-264.5 -67.99,-65.86 -150.85,-98.79 -248.58,-98.79l-509.9 0 0 726.6 509.9 0zm11915.92 2600.48c-671.37,0 -1228,-223.08 -1669.92,-669.25 -441.9,-446.15 -662.86,-1000.67 -662.86,-1663.54 0,-662.86 220.96,-1217.38 662.86,-1663.54 441.92,-446.16 998.55,-669.23 1669.92,-669.23 412.17,0 792.46,97.72 1140.9,293.19 348.42,195.46 620.37,458.9 815.84,790.34l-1109.03 637.37c-72.24,-144.47 -184.84,-259.2 -337.81,-344.18 -152.97,-84.99 -322.94,-127.48 -509.9,-127.48 -314.44,0 -569.39,101.98 -764.84,305.94 -195.47,203.97 -293.2,463.16 -293.2,777.59 0,314.44 97.73,573.64 293.2,777.6 195.45,203.96 450.4,305.94 764.84,305.94 191.21,0 362.25,-42.5 513.09,-127.47 150.84,-84.99 262.38,-201.84 334.62,-350.56l1109.03 637.37c-195.47,335.69 -467.42,601.26 -815.84,796.72 -348.44,195.45 -728.73,293.19 -1140.9,293.19zm4633.7 -4563.58l1274.74 0 0 4461.6 -1274.74 0 0 -1644.42 -1083.54 0 0 1644.42 -1274.74 0 0 -4461.6 1274.74 0 0 1580.68 1083.54 0 0 -1580.68zm4493.47 4461.6l-152.97 -573.64 -1287.49 0 -152.96 573.64 -1370.35 0 1421.34 -4461.6 1491.44 0 1421.34 4461.6 -1370.35 0zm-1166.39 -1593.43l739.36 0 -369.68 -1370.36 -369.68 1370.36zm4767.55 -1236.5c454.66,0 812.65,126.41 1073.97,379.23 261.32,252.82 391.99,591.7 391.99,1016.62 0,429.16 -131.73,775.46 -395.17,1038.91 -263.45,263.45 -620.37,395.17 -1070.79,395.17l-1975.85 0 0 -4461.6 3059.38 0 0 1236.5 -1784.64 0 0 395.17 701.11 0zm-95.61 1682.66c84.98,0 154.04,-25.5 207.15,-76.48 53.12,-50.99 79.67,-121.11 79.67,-210.33 0,-89.24 -26.55,-159.35 -79.67,-210.34 -53.11,-50.99 -122.17,-76.48 -207.15,-76.48l-605.5 0 0 573.63 605.5 0zm-23461.36 -10478.83l300.77 -161.93 3123.23 2214.64 -3424 -2052.71z"/>
 </g>
</svg>
