<svg width="174" height="10" viewBox="0 0 174 10" fill="none" xmlns="http://www.w3.org/2000/svg">
<path d="M115.187 8.5H110.062V3.0625H115.25C115.562 4.625 115.687 6.9375 115.187 8.5ZM118.75 1.5H110.062V0H106V10H118.75C119.937 7.5 120 4.125 118.75 1.5Z" fill="#d0043c"/>
<path d="M149.937 1.5V6.9375H143.125L144.5 1.5H149.937ZM140.875 0L138.25 10H142.312L142.687 8.5H149.875V10H153.937V0H140.875Z" fill="#d0043c"/>
<path d="M173.25 10H155.437V0H159.437V8.5H162.312V0H166.312V8.5H169.187V0H173.25V10Z" fill="#d0043c"/>
<path d="M25.875 8.5C26.6875 6.4375 26.625 3.5625 25.875 1.5625H19.8125C19 3.5625 19 6.5 19.8125 8.5H25.875ZM16.6875 10C14.5 7.1875 14.875 2.1875 16.6875 0H29.125C30.6875 1.75 31.5 6.875 29.125 10H16.6875Z" fill="#d0043c"/>
<path d="M128.938 3.5L125.125 0H121.125V10H125.125V2.125L128.938 5.5625L132.813 2.125V10H136.813V0H132.813L128.938 3.5Z" fill="#d0043c"/>
<path d="M91.5 0H104.125V10H100.062V1.5H95.125L92.625 10H88.5625L91.5 0Z" fill="#d0043c"/>
<path d="M4.0625 7H9.25C9.625 5.4375 9.625 3.0625 9.25 1.5H4.0625V7ZM4.0625 8.5V10H0V0H12.6875C13.75 2.5 13.875 5.9375 12.6875 8.5H4.0625Z" fill="#d0043c"/>
<path d="M54.8125 10H50.75V1.5H46.6875V0H58.8125V1.5H54.8125V10Z" fill="#d0043c"/>
<path d="M36.8125 1.5C36 3.625 36 6.3125 36.8125 8.4375H44.75V10H33.625C31.625 7.375 31.75 2.375 33.5625 0H44.75V1.5H36.8125Z" fill="#d0043c"/>
<path d="M64.6875 1.5C63.875 3.625 63.875 6.3125 64.6875 8.4375H72.625V10H61.5625C59.5625 7.375 59.6875 2.375 61.5 0H72.6875V1.5H64.6875Z" fill="#d0043c"/>
<path d="M87.125 8.5V10H74.5625V0H87.125V1.5H78.625V3.6875H85.5V5.1875H78.625V8.5H87.125Z" fill="#d0043c"/>
</svg>
