<?xml version="1.0" encoding="UTF-8"?>
<!DOCTYPE svg PUBLIC "-//W3C//DTD SVG 1.1//EN" "http://www.w3.org/Graphics/SVG/1.1/DTD/svg11.dtd">
<!-- Creator: CorelDRAW -->
<svg xmlns="http://www.w3.org/2000/svg" xml:space="preserve" width="165mm" height="145mm" version="1.1" style="shape-rendering:geometricPrecision; text-rendering:geometricPrecision; image-rendering:optimizeQuality; fill-rule:evenodd; clip-rule:evenodd"
viewBox="0 0 16500 14500"
 xmlns:xlink="http://www.w3.org/1999/xlink"
 xmlns:xodm="http://www.corel.com/coreldraw/odm/2003">
 <defs>
  <style type="text/css">
   <![CDATA[
    .fil0 {fill:#E31E24}
   ]]>
  </style>
 </defs>
 <g id="Слой_x0020_1">
  <metadata id="CorelCorpID_0Corel-Layer"/>
  <path class="fil0" d="M2889.66 3354.08l-1703.57 113.57 1041.08 -1590.01 832.85 94.65 1665.71 -1097.86 1343.94 889.65 1930.71 -1665.72 681.43 643.57 -1779.28 1571.07 1817.14 1078.93 3217.86 -2252.5 18.93 -851.78 4448.21 4788.93 -3823.57 4353.58 -1892.86 -2120.01 -2839.28 -454.29 -2479.65 1722.51 -1343.93 -1116.79 397.5 -2441.79 -1533.22 -1665.71zm8934.3 2479.65l-2328.22 -2025.37 2612.14 -1892.86 1684.65 1873.93 -1968.57 2044.3zm2555.35 -1495.36l-2105.32 1983.33 799.25 931.67 1798.21 -2479.65 -492.14 -435.35zm-10985.57 2665.98c-362.03,355.3 -805.72,532.94 -1331.08,532.94 -525.37,0 -969.06,-177.64 -1331.09,-532.94 -362.03,-355.3 -543.05,-793.94 -543.05,-1315.93 0,-521.99 181.02,-960.64 543.05,-1315.93 362.03,-355.29 805.72,-532.94 1331.09,-532.94 525.36,0 969.05,177.65 1331.08,532.94 362.03,355.29 543.05,793.94 543.05,1315.93 0,521.99 -181.02,960.63 -543.05,1315.93zm-1760.81 -889.7c113.42,113.42 256.66,170.13 429.73,170.13 173.05,0 316.3,-56.71 429.73,-170.13 113.42,-113.43 170.13,-255.5 170.13,-426.23 0,-170.72 -56.71,-312.79 -170.13,-426.22 -113.43,-113.43 -256.68,-170.14 -429.73,-170.14 -173.07,0 -316.31,56.71 -429.73,170.14 -113.43,113.43 -170.15,255.5 -170.15,426.22 0,170.73 56.72,312.8 170.15,426.23zm9615.52 7235.86c-652,639.87 -1451.07,959.8 -2397.22,959.8 -946.15,0 -1745.22,-319.93 -2397.21,-959.8 -652,-639.87 -978,-1429.84 -978,-2369.93 0,-940.07 326,-1730.06 978,-2369.92 651.99,-639.87 1451.06,-959.79 2397.21,-959.79 946.15,0 1745.22,319.92 2397.22,959.79 652,639.86 978,1429.85 978,2369.92 0,940.09 -326,1730.06 -978,2369.93zm-3455.57 -1320.21c279.35,279.34 632.12,419.02 1058.35,419.02 426.22,0 779,-139.68 1058.35,-419.02 279.35,-279.35 419.02,-629.26 419.02,-1049.72 0,-420.46 -139.67,-770.36 -419.02,-1049.72 -279.35,-279.34 -632.13,-419.02 -1058.35,-419.02 -426.23,0 -779,139.68 -1058.35,419.02 -279.36,279.36 -419.03,629.26 -419.03,1049.72 0,420.46 139.67,770.37 419.03,1049.72zm-3367.92 -10426.08l300.77 -161.93 3123.23 2214.64 -3424 -2052.71z"/>
 </g>
</svg>
