<?xml version="1.0" encoding="UTF-8"?>
<!-- Generator: Adobe Illustrator 18.1.1, SVG Export Plug-In . SVG Version: 6.00 Build 0)  -->
<svg width="48" height="32" version="1.1" id="Слой_1" xmlns="http://www.w3.org/2000/svg" xmlns:xlink="http://www.w3.org/1999/xlink" x="0px" y="0px" viewBox="0 0 179.31 84.69" style="enable-background:new 0 0 179.31 84.69;" xml:space="preserve">
<style type="text/css">
	.st0{fill:#FFFFFF;}
	.st1{fill:#D0043C;}
</style>
<rect x="0" y="24.85" class="st0" width="179.31" height="59.84"/>
<rect x="43.74" y="2.88" class="st0" width="91.26" height="20.75"/>
<path class="st1" d="M43.74,7.03H135V0H43.74V7.03z M53.07,17.61c0.18-0.73,0.19-1.83,0-2.56h-2.42v2.56H53.07z M60.87,18.31  c0.39-0.95,0.36-2.32-0.01-3.25h-2.83c-0.38,0.95-0.38,2.32-0.01,3.25H60.87z M102.59,18.31c0.22-0.73,0.17-1.81,0.01-2.54h-2.41  v2.54H102.59z M115.63,17.59h3.18v-2.54h-2.53L115.63,17.59z M174.59,43.76h-11.78v-8.42h11.78V43.76z M162.81,45.71h11.78v8.43  h-11.78V45.71z M160.63,43.76h-11.78v-8.42h11.78V43.76z M148.85,45.71h11.78v8.43h-11.78V45.71z M146.67,43.76H134.9v-8.42h11.78  V43.76z M134.9,45.71h11.78v8.43H134.9V45.71z M129.7,73.49h-11.78V56.64h11.78V73.49z M129.7,54.14h-11.78v-8.43h11.78V54.14z   M129.7,43.76h-11.78v-8.42h11.78V43.76z M129.7,33.38h-11.78v-8.42h11.78V33.38z M129.7,19.02h-8.33v-4.68h1.88v3.96h1.34v-3.96  h1.88v3.96h1.33v-3.96h1.89V19.02z M120.69,19.02h-1.89v-0.71h-3.36l-0.18,0.71h-1.9l1.22-4.68h6.11V19.02z M112.69,19.02h-1.89  v-3.69l-1.79,1.61l-1.79-1.61l-0.01,3.69h-1.88v-4.68h1.89l1.79,1.63l1.79-1.63h1.89V19.02z M104.24,19.02h-5.95v-4.68h1.89v0.71  h4.07C104.82,16.27,104.79,17.83,104.24,19.02 M97.4,19.02h-1.89v-3.97H93.2l-1.16,3.97h-1.89l1.36-4.68h5.89V19.02z M90.01,24.95  h11.78v8.42H90.01V24.95z M89.47,19.02h-5.86v-4.68h5.86v0.71h-3.97v1h3.21l0,0.71h-3.21l0,1.54h3.98V19.02z M82.72,15.05H79  c-0.39,0.98-0.37,2.26,0,3.25h3.72v0.71h-5.2c-0.95-1.23-0.86-3.56-0.02-4.68h5.23V15.05z M76.26,24.95h11.78v8.42H76.26V24.95z   M76.25,15.05h-1.89v3.97h-1.89v-3.97h-1.89v-0.71h5.67V15.05z M69.69,15.05h-3.72c-0.39,0.98-0.37,2.26,0,3.25h3.72v0.71h-5.21  c-0.95-1.23-0.86-3.56-0.02-4.68h5.22V15.05z M62.35,19.02h-5.8c-1.01-1.32-0.84-3.66-0.01-4.68h5.8  C63.07,15.17,63.45,17.54,62.35,19.02 M54.7,18.31h-4.05v0.71h-1.88v-4.68h5.93C55.2,15.52,55.24,17.1,54.7,18.31 M43.74,73.49  H31.96V56.64h11.78V73.49z M43.74,54.14H31.96v-8.43h11.78V54.14z M43.74,43.76H31.96v-8.42h11.78V43.76z M29.99,73.49H18.21V56.64  h11.78V73.49z M29.99,54.14H18.21v-8.43h11.78V54.14z M29.99,43.76H18.21v-8.42h11.78V43.76z M16.24,73.49H4.47V56.64h11.78V73.49z   M16.24,54.14H4.47v-8.43h11.78V54.14z M16.24,43.76H4.47v-8.42h11.78V43.76z M48.77,24.95h11.78v8.42H48.77V24.95z M48.77,35.33  h11.78v8.42H48.77V35.33z M48.77,45.71h11.78v8.43H48.77V45.71z M48.77,56.64h11.78v16.85H48.77V56.64z M62.51,24.95h11.78v8.42  H62.51V24.95z M62.51,35.33h11.78v8.42H62.51V35.33z M62.51,45.71h11.78v8.43H62.51V45.71z M62.51,56.64h11.78v16.85H62.51V56.64z   M76.26,35.33h11.78v8.42H76.26V35.33z M90.01,35.33h11.78v8.42H90.01V35.33z M76.26,45.71h25.52v32.43H76.26V45.71z M103.96,24.95  h11.78v8.42h-11.78V24.95z M103.96,35.33h11.78v8.42h-11.78V35.33z M103.96,45.71h11.78v8.43h-11.78V45.71z M103.96,56.64h11.78  v16.85h-11.78V56.64z M134.9,56.64h11.78v16.85H134.9V56.64z M148.85,56.64h11.78v16.85h-11.78V56.64z M162.81,56.64h11.78v16.85  h-11.78V56.64z M179.31,84.69V24.85H135V8.8H43.74v16.05H0v59.84H179.31z"/>
</svg>