<?xml version="1.0" encoding="UTF-8"?>
<!-- Generator: Adobe Illustrator 18.1.1, SVG Export Plug-In . SVG Version: 6.00 Build 0)  -->
<svg  width="48" height="32" version="1.1" id="Слой_1" xmlns="http://www.w3.org/2000/svg" xmlns:xlink="http://www.w3.org/1999/xlink" x="0px" y="0px" viewBox="0 0 88.44 87.55" style="enable-background:new 0 0 88.44 87.55;" xml:space="preserve">
<style type="text/css">
	.st0{fill:#3C4246;}
</style>
<path class="st0" d="M27.49,52.77c0,0-23.83,22.81-25.57,24.47c-2.66,2.55-2.37,7.16-0.31,8.97c2.65,2.32,7,1.21,8.47-0.2  c2.21-2.11,29.56-28.29,29.56-28.29s5.28-4.73,11.29-3.93c6,0.8,9.31-4.62,10.03-7.81c0.8-3.55,1.78-11.11-0.62-12.55  c-0.77-0.46-1.96,0.57-3.19,3.05c-1.22,2.48-2.53,6.02-4.7,5.92s-6.9-1.7-8.04-4.41c-0.42-1.01-0.22-2.62,1.22-4.77  c1.44-2.14,2.94-4.78,2.94-4.78s1.62-2.64-1.12-2.09c-2.74,0.55-9.98,3.86-12.9,9.08c-2.9,5.18,1.19,9.44-4.79,15.17L27.49,52.77z   M88.37,33.12l-1.13-4.33c-0.23-0.89-1.02-1.52-1.94-1.56l-4.98-0.18c-0.77-0.03-1.45-0.48-1.8-1.17c-0.58-1.17-1.22-2.31-1.94-3.42  c-0.42-0.65-0.45-1.48-0.07-2.16l2.42-4.31c0.46-0.81,0.32-1.82-0.33-2.48l-3.14-3.19c-0.65-0.66-1.65-0.81-2.46-0.38l-4.41,2.34  c-0.68,0.36-1.5,0.31-2.14-0.12c-1.1-0.73-2.23-1.4-3.39-1.99c-0.69-0.36-1.13-1.06-1.14-1.83L61.86,3.4  c-0.01-0.93-0.64-1.74-1.53-1.98l-4.32-1.19c-0.89-0.24-1.83,0.12-2.32,0.9l-2.66,4.23c-0.41,0.65-1.14,1.02-1.91,0.97  c-1.31-0.08-2.62-0.09-3.92-0.03c-0.77,0.04-1.51-0.35-1.9-1.02l-2.53-4.26c-0.47-0.8-1.42-1.19-2.32-0.95l-4.33,1.13  c-0.89,0.23-1.52,1.02-1.56,1.94l-0.18,4.98c-0.03,0.77-0.48,1.45-1.17,1.79c-1.17,0.58-2.31,1.23-3.42,1.94  c-0.65,0.42-1.48,0.45-2.16,0.07l-4.31-2.42c-0.81-0.46-1.82-0.32-2.48,0.33l-3.19,3.14c-0.66,0.65-0.81,1.65-0.38,2.46l2.34,4.41  c0.36,0.68,0.31,1.5-0.11,2.14c-0.73,1.1-1.4,2.23-1.99,3.39c-0.36,0.69-1.06,1.13-1.83,1.14l-4.94,0.06  c-0.93,0.01-1.74,0.64-1.99,1.53l-1.19,4.32c-0.24,0.89,0.12,1.83,0.9,2.32l4.23,2.66c0.65,0.41,1.02,1.14,0.97,1.91  c-0.08,1.31-0.09,2.62-0.03,3.92c0.04,0.77-0.35,1.51-1.02,1.9l-4.26,2.53c-0.8,0.47-1.19,1.42-0.95,2.32l1.13,4.33  c0.23,0.89,1.02,1.52,1.94,1.56l4.99,0.18c0.29,0.01,0.57,0.08,0.82,0.2l10.4-10.81c-1.26-7.24,1.03-14.96,6.81-20.38  c9.09-8.51,23.52-7.98,31.98,1.17c8.4,9.08,7.92,23.29-1.16,31.79c-5.68,5.31-13.44,7.1-20.52,5.47L31.68,73.98  c0.1,0.25,0.16,0.51,0.17,0.79l0.06,4.94c0.01,0.93,0.63,1.74,1.53,1.99l4.32,1.19c0.89,0.24,1.83-0.12,2.32-0.9l2.66-4.24  c0.41-0.65,1.14-1.02,1.91-0.97c1.31,0.08,2.62,0.09,3.92,0.03c0.77-0.04,1.51,0.35,1.9,1.02L53,82.08c0.47,0.8,1.42,1.19,2.32,0.95  l4.33-1.13c0.89-0.23,1.53-1.02,1.56-1.94l0.18-4.99c0.03-0.77,0.48-1.45,1.17-1.79c1.17-0.58,2.31-1.23,3.42-1.94  c0.65-0.42,1.48-0.45,2.16-0.07l4.31,2.42c0.81,0.45,1.82,0.32,2.48-0.33l3.19-3.14c0.66-0.65,0.81-1.65,0.38-2.46l-2.34-4.41  c-0.36-0.68-0.31-1.5,0.11-2.14c0.73-1.1,1.4-2.23,1.99-3.39c0.36-0.69,1.06-1.13,1.83-1.14l4.94-0.06  c0.93-0.01,1.74-0.63,1.98-1.53l1.19-4.32c0.24-0.89-0.12-1.83-0.9-2.32l-4.23-2.66c-0.65-0.41-1.02-1.14-0.97-1.91  c0.08-1.31,0.09-2.62,0.03-3.92c-0.04-0.77,0.35-1.51,1.02-1.9l4.26-2.53C88.21,34.97,88.6,34.02,88.37,33.12"/>
</svg>