<svg width="363" height="30" viewBox="0 0 363 30" fill="none" xmlns="http://www.w3.org/2000/svg">
<path d="M352.635 15.5997C354.19 15.5997 355.518 15.6603 356.628 15.7891C357.738 15.9179 358.674 16.1073 359.429 16.3648C360.199 16.6148 360.803 16.9254 361.256 17.2967C361.709 17.6679 362.056 18.0997 362.305 18.5845C362.555 19.0618 362.706 19.5921 362.781 20.183C362.857 20.7739 362.902 21.4178 362.902 22.1072C362.902 22.7966 362.841 23.4481 362.713 24.0617C362.592 24.6602 362.381 25.2132 362.064 25.7208C361.747 26.2208 361.324 26.6753 360.78 27.0692C360.237 27.4632 359.55 27.7965 358.719 28.0768C357.881 28.3495 356.877 28.5616 355.7 28.698C354.529 28.8495 353.155 28.9177 351.585 28.9177H347.81C346.391 28.9177 345.153 28.8647 344.096 28.7586C343.032 28.6526 342.118 28.4859 341.356 28.2738C340.586 28.0465 339.952 27.7662 339.453 27.4329C338.955 27.0844 338.547 26.6905 338.245 26.2359C337.951 25.7738 337.747 25.2511 337.626 24.6678C337.506 24.0769 337.453 23.4254 337.453 22.7132H340.284C340.284 23.5996 340.412 24.2966 340.669 24.7965C340.925 25.2965 341.348 25.6829 341.937 25.9329C342.526 26.1829 343.296 26.3344 344.255 26.4102C345.221 26.4708 346.406 26.5011 347.826 26.5011H351.6C353.254 26.5011 354.62 26.4253 355.715 26.2662C356.809 26.1071 357.678 25.8571 358.327 25.5087C358.976 25.1602 359.429 24.7132 359.701 24.1602C359.965 23.5996 360.101 22.9178 360.101 22.1148C360.101 21.3193 360.01 20.6527 359.822 20.1148C359.648 19.5845 359.286 19.1603 358.742 18.8421C358.214 18.5239 357.459 18.3042 356.485 18.1754C355.511 18.0391 354.235 17.9709 352.665 17.9709H348.769C347.04 17.9709 345.553 17.9103 344.315 17.7815C343.085 17.6527 342.058 17.4709 341.22 17.236C340.382 16.986 339.717 16.6906 339.212 16.3345C338.713 15.9709 338.328 15.5543 338.064 15.0921C337.807 14.63 337.641 14.1149 337.566 13.5543C337.49 12.9785 337.445 12.3649 337.445 11.7058C337.445 11.0164 337.505 10.3725 337.619 9.7816C337.747 9.1907 337.981 8.66041 338.313 8.18314C338.645 7.6983 339.106 7.27406 339.687 6.89528C340.269 6.52407 341.008 6.21347 341.914 5.96347C342.828 5.7059 343.923 5.51651 345.206 5.38772C346.482 5.25894 347.984 5.19833 349.72 5.19833H352.552C353.971 5.19833 355.209 5.25136 356.266 5.35742C357.33 5.45591 358.244 5.62257 359.006 5.84226C359.776 6.06196 360.41 6.33468 360.909 6.66801C361.422 6.99376 361.822 7.3877 362.117 7.84981C362.419 8.30435 362.63 8.8195 362.751 9.40282C362.872 9.98615 362.924 10.6301 362.924 11.3422H360.093C360.093 10.4558 359.965 9.75888 359.708 9.25888C359.452 8.75889 359.029 8.38011 358.44 8.13769C357.851 7.88011 357.074 7.72103 356.107 7.66042C355.141 7.59224 353.956 7.55436 352.536 7.55436H349.705C347.818 7.55436 346.263 7.62254 345.047 7.7589C343.832 7.88769 342.866 8.10738 342.156 8.42556C341.446 8.74374 340.956 9.16798 340.684 9.69827C340.412 10.2286 340.269 10.8952 340.269 11.6982C340.269 12.1907 340.306 12.63 340.374 13.0164C340.442 13.4028 340.578 13.7437 340.79 14.0391C341.008 14.327 341.303 14.5694 341.688 14.7664C342.073 14.9634 342.579 15.13 343.205 15.2512C343.832 15.38 344.602 15.4709 345.508 15.5315C346.421 15.5846 347.508 15.6073 348.769 15.6073H352.635V15.5997ZM299.909 7.54679V28.3798H297.078V5.65287H301.797L314.993 25.539L328.19 5.65287H332.704V28.3798H329.873V7.85739L316.427 28.3798H313.566L299.909 7.54679ZM270.655 28.3798V5.65287H293.304V8.02405H273.486V15.5997H292.36V17.9633H273.486V26.0162H293.304V28.3874H270.655V28.3798ZM265.937 5.65287V8.02405H254.613V28.3874H251.782V8.02405H240.458V5.65287H265.937ZM226.423 15.5997C227.978 15.5997 229.307 15.6603 230.417 15.7891C231.527 15.9179 232.463 16.1073 233.218 16.3648C233.988 16.6148 234.592 16.9254 235.045 17.2967C235.498 17.6679 235.845 18.0997 236.094 18.5845C236.343 19.0618 236.494 19.5921 236.57 20.183C236.645 20.7739 236.69 21.4178 236.69 22.1072C236.69 22.7966 236.63 23.4481 236.502 24.0617C236.381 24.6602 236.17 25.2132 235.852 25.7208C235.535 26.2208 235.113 26.6753 234.569 27.0692C234.025 27.4632 233.338 27.7965 232.508 28.0768C231.67 28.3495 230.666 28.5616 229.488 28.698C228.318 28.8495 226.944 28.9177 225.374 28.9177H221.599C220.18 28.9177 218.942 28.8647 217.885 28.7586C216.82 28.6526 215.907 28.4859 215.144 28.2738C214.374 28.0465 213.74 27.7662 213.242 27.4329C212.744 27.0844 212.336 26.6905 212.034 26.2359C211.74 25.7738 211.536 25.2511 211.415 24.6678C211.294 24.0769 211.241 23.4254 211.241 22.7132H214.072C214.072 23.5996 214.201 24.2966 214.457 24.7965C214.714 25.2965 215.137 25.6829 215.726 25.9329C216.315 26.1829 217.085 26.3344 218.043 26.4102C219.01 26.4708 220.195 26.5011 221.614 26.5011H225.389C227.042 26.5011 228.409 26.4253 229.503 26.2662C230.598 26.1071 231.466 25.8571 232.115 25.5087C232.765 25.1602 233.218 24.7132 233.489 24.1602C233.754 23.5996 233.89 22.9178 233.89 22.1148C233.89 21.3193 233.799 20.6527 233.61 20.1148C233.437 19.5845 233.074 19.1603 232.531 18.8421C232.002 18.5239 231.247 18.3042 230.273 18.1754C229.3 18.0391 228.024 17.9709 226.453 17.9709H222.558C220.829 17.9709 219.342 17.9103 218.104 17.7815C216.873 17.6527 215.846 17.4709 215.008 17.236C214.17 16.986 213.506 16.6906 213 16.3345C212.502 15.9709 212.117 15.5543 211.853 15.0921C211.596 14.63 211.43 14.1149 211.355 13.5543C211.279 12.9785 211.234 12.3649 211.234 11.7058C211.234 11.0164 211.294 10.3725 211.407 9.7816C211.536 9.1907 211.77 8.66041 212.102 8.18314C212.434 7.6983 212.895 7.27406 213.476 6.89528C214.057 6.52407 214.797 6.21347 215.703 5.96347C216.616 5.7059 217.711 5.51651 218.995 5.38772C220.27 5.25894 221.773 5.19833 223.509 5.19833H226.34C227.759 5.19833 228.998 5.25136 230.054 5.35742C231.119 5.45591 232.032 5.62257 232.795 5.84226C233.565 6.06196 234.199 6.33468 234.697 6.66801C235.211 6.99376 235.611 7.3877 235.905 7.84981C236.207 8.30435 236.419 8.8195 236.539 9.40282C236.66 9.98615 236.713 10.6301 236.713 11.3422H233.882C233.882 10.4558 233.754 9.75888 233.497 9.25888C233.24 8.75889 232.818 8.38011 232.229 8.13769C231.64 7.88011 230.862 7.72103 229.896 7.66042C228.93 7.59224 227.744 7.55436 226.325 7.55436H223.494C221.607 7.55436 220.051 7.62254 218.836 7.7589C217.621 7.88769 216.654 8.10738 215.945 8.42556C215.235 8.74374 214.744 9.16798 214.472 9.69827C214.201 10.2286 214.057 10.8952 214.057 11.6982C214.057 12.1907 214.095 12.63 214.163 13.0164C214.231 13.4028 214.367 13.7437 214.578 14.0391C214.797 14.327 215.091 14.5694 215.477 14.7664C215.862 14.9634 216.367 15.13 216.994 15.2512C217.621 15.38 218.391 15.4709 219.297 15.5315C220.21 15.5846 221.297 15.6073 222.558 15.6073H226.423V15.5997ZM178.764 5.65287H182.538L192.919 16.7815L203.299 5.65287H207.074L194.331 18.9103V28.3798H191.5V18.9103L178.764 5.65287ZM120.24 9.63009C120.24 8.20587 120.089 7.08467 119.78 6.25892C119.47 5.43318 118.965 4.8044 118.255 4.38016C117.545 3.95593 116.617 3.6832 115.462 3.56199C114.307 3.44078 112.88 3.38775 111.181 3.38775H102.084C100.574 3.38775 99.2983 3.43321 98.2641 3.53169C97.2373 3.61502 96.3918 3.78926 95.7124 4.06199C95.0329 4.33471 94.5195 4.72864 94.1572 5.23621C93.7948 5.74378 93.523 6.41801 93.3645 7.25891C93.206 8.09981 93.1078 9.13767 93.0776 10.3649C93.055 11.5846 93.0399 13.0467 93.0399 14.7512C93.0399 16.4558 93.055 17.9254 93.0776 19.1527C93.1154 20.3724 93.2135 21.4027 93.3796 22.2436C93.5457 23.0844 93.8024 23.7587 94.1572 24.2663C94.5195 24.7738 95.0405 25.1678 95.7124 25.4405C96.3843 25.7132 97.2373 25.895 98.2641 25.9935C99.3059 26.0768 100.574 26.1147 102.084 26.1147H111.196C112.517 26.1147 113.657 26.0768 114.609 26.0087C115.56 25.9405 116.375 25.8041 117.047 25.6147C117.719 25.4253 118.263 25.1678 118.678 24.8344C119.093 24.5011 119.41 24.092 119.637 23.592C119.871 23.0845 120.029 22.4784 120.112 21.7814C120.195 21.0693 120.233 20.2436 120.233 19.2966V17.5845H106.614V14.7437H123.638V19.289C123.638 20.4254 123.57 21.4557 123.426 22.3799C123.283 23.289 123.034 24.1072 122.664 24.8269C122.309 25.539 121.833 26.1526 121.229 26.6753C120.625 27.198 119.871 27.6298 118.95 27.9707C118.028 28.3041 116.934 28.5465 115.658 28.698C114.382 28.8647 112.895 28.948 111.196 28.948H102.084C100.008 28.948 98.2565 28.8192 96.8297 28.5541C95.4104 28.3041 94.2478 27.9253 93.3267 27.4177C92.4057 26.895 91.6961 26.2435 91.1827 25.4632C90.6844 24.6829 90.3221 23.7663 90.088 22.7132C89.8615 21.6602 89.7332 20.4708 89.6955 19.1451C89.6577 17.8194 89.6426 16.3497 89.6426 14.7437C89.6426 13.1376 89.6577 11.6679 89.6955 10.3422C89.7332 9.01646 89.8615 7.82708 90.088 6.77407C90.3221 5.72105 90.692 4.8044 91.1827 4.02411C91.6885 3.24381 92.4057 2.59988 93.3267 2.09232C94.2478 1.5696 95.4179 1.18324 96.8297 0.940816C98.2565 0.668093 100.008 0.539307 102.084 0.539307H111.181C112.88 0.539307 114.367 0.622639 115.643 0.789303C116.919 0.940816 118.013 1.18324 118.934 1.51657C119.855 1.83474 120.618 2.24383 121.214 2.74382C121.826 3.24381 122.309 3.82714 122.664 4.50137C123.026 5.17561 123.283 5.94075 123.426 6.78922C123.57 7.63769 123.638 8.59223 123.638 9.63009H120.24ZM44.6329 3.38018V28.3798H41.2357V1.10748H46.8977L62.7365 24.9708L78.5752 1.10748H83.9881V28.3798H80.5909V3.75138L64.4502 28.3798H61.0152L44.6329 3.38018ZM27.6467 19.289L18.5874 3.38018L9.52807 19.289H27.6467ZM29.3453 22.1299H7.82944L4.4322 28.3798H0.46875L16.3226 1.10748H20.8522L36.706 28.3798H32.7426L29.3453 22.1299Z" fill="black"/>
<path d="M162.299 13.0392C164.164 13.0392 165.764 13.1149 167.093 13.2664C168.429 13.4179 169.547 13.6528 170.453 13.9558C171.374 14.2513 172.106 14.6225 172.649 15.077C173.193 15.5315 173.608 16.0391 173.903 16.6224C174.197 17.1906 174.386 17.827 174.469 18.5391C174.567 19.2512 174.612 20.0163 174.612 20.8496C174.612 21.683 174.537 22.4633 174.386 23.1905C174.242 23.9102 173.986 24.5769 173.608 25.1829C173.231 25.789 172.717 26.3268 172.068 26.7965C171.419 27.2662 170.596 27.6753 169.592 28.0011C168.588 28.3268 167.38 28.5844 165.968 28.7435C164.564 28.9177 162.918 29.0086 161.031 29.0086H156.501C154.803 29.0086 153.315 28.9404 152.04 28.8117C150.764 28.6829 149.669 28.4859 148.748 28.2283C147.827 27.9556 147.064 27.6223 146.468 27.2132C145.864 26.7965 145.381 26.3193 145.019 25.7738C144.664 25.2208 144.415 24.592 144.279 23.8951C144.135 23.183 144.067 22.4027 144.067 21.5542H147.465C147.465 22.6224 147.616 23.4557 147.925 24.0542C148.235 24.6602 148.74 25.1147 149.45 25.4178C150.16 25.7132 151.081 25.9026 152.228 25.9859C153.383 26.0541 154.81 26.092 156.509 26.092H161.038C163.024 26.092 164.662 25.9935 165.976 25.8041C167.289 25.6147 168.331 25.3117 169.109 24.8951C169.886 24.4784 170.437 23.9405 170.755 23.2814C171.072 22.6072 171.23 21.789 171.23 20.8345C171.23 19.88 171.117 19.0769 170.89 18.4406C170.679 17.8042 170.249 17.2891 169.599 16.9103C168.965 16.5315 168.059 16.2664 166.889 16.1149C165.719 15.9482 164.194 15.8649 162.307 15.8649H157.634C155.558 15.8649 153.776 15.7891 152.289 15.6376C150.817 15.4861 149.578 15.2664 148.574 14.9785C147.57 14.6831 146.77 14.3194 146.166 13.8952C145.562 13.4558 145.102 12.9634 144.785 12.4028C144.475 11.8498 144.279 11.2286 144.181 10.5543C144.082 9.86495 144.037 9.13011 144.037 8.33467C144.037 7.50892 144.105 6.73621 144.248 6.02409C144.399 5.31198 144.679 4.67563 145.079 4.10745C145.479 3.52413 146.03 3.00898 146.725 2.56202C147.419 2.11506 148.31 1.73627 149.397 1.44082C150.492 1.13022 151.813 0.902953 153.346 0.75144C154.878 0.599926 156.682 0.52417 158.759 0.52417H162.156C163.854 0.52417 165.342 0.592351 166.617 0.721137C167.893 0.842347 168.988 1.03174 169.909 1.30446C170.83 1.56203 171.593 1.89536 172.189 2.29687C172.8 2.69081 173.284 3.1605 173.638 3.7211C174.001 4.26654 174.257 4.88775 174.401 5.58471C174.544 6.28167 174.612 7.06196 174.612 7.91043H171.215C171.215 6.84227 171.064 6.00894 170.755 5.41047C170.445 4.80441 169.939 4.35745 169.23 4.062C168.52 3.7514 167.591 3.56201 166.436 3.49383C165.281 3.41049 163.854 3.37262 162.156 3.37262H158.759C156.494 3.37262 154.629 3.45595 153.164 3.62261C151.7 3.77413 150.545 4.03927 149.699 4.41806C148.854 4.79684 148.257 5.30441 147.933 5.94834C147.608 6.59227 147.434 7.38771 147.434 8.34225C147.434 8.93315 147.472 9.46344 147.555 9.92556C147.638 10.3877 147.804 10.7968 148.053 11.1528C148.31 11.4937 148.672 11.7892 149.133 12.024C149.593 12.2589 150.197 12.4558 150.952 12.6073C151.707 12.7589 152.628 12.8725 153.715 12.9482C154.81 13.0088 156.116 13.0392 157.626 13.0392H162.299Z" fill="#0C72BC"/>
</svg>
